<?xml version="1.0"?>
<svg xmlns="http://www.w3.org/2000/svg" id="Filled" viewBox="0 0 512 512" width="512" height="512"><path d="M488,136V376c0,30.93-103.87,56-232,56S24,406.93,24,376V136Z" style="fill:#ad6643"/><ellipse cx="256" cy="136" rx="232" ry="56" style="fill:#95573a"/><path d="M488,136c0,13.94-21.1,26.69-56.01,36.49C430.7,157.2,352.4,144.87,256,144.87S81.3,157.2,80.01,172.49C45.1,162.69,24,149.94,24,136c0-30.93,103.87-56,232-56S488,105.07,488,136Z" style="fill:none"/><path d="M431.99,172.49C389.44,184.44,326.38,192,256,192s-133.44-7.56-175.99-19.51C81.3,157.2,159.6,144.87,256,144.87S430.7,157.2,431.99,172.49Z" style="fill:#6ed2f0"/><path d="M24,344c0,30.928,103.87,56,232,56s232-25.072,232-56v32c0,30.928-103.87,56-232,56S24,406.928,24,376V336" style="fill:#734b39"/><path d="M421.926,88.625C377.51,77.9,318.583,72,256,72S134.49,77.9,90.074,88.625C40.922,100.49,16,116.429,16,136a22.525,22.525,0,0,0,.22,3.034,7.987,7.987,0,0,0-.22,1.835V376c0,19.571,24.922,35.511,74.074,47.375C134.49,434.1,193.417,440,256,440s121.51-5.9,165.926-16.625C471.078,411.511,496,395.571,496,376V140.869a7.987,7.987,0,0,0-.22-1.835A22.525,22.525,0,0,0,496,136C496,116.429,471.078,100.49,421.926,88.625ZM46.2,121.15c10.876-6.207,27.347-12.075,47.631-16.971C137.051,93.746,194.645,88,256,88s118.949,5.746,162.172,16.179c20.284,4.9,36.755,10.764,47.631,16.971C474.825,126.3,480,131.712,480,136s-5.175,9.7-14.2,14.85c-7.529,4.3-17.742,8.43-30.042,12.192-7.37-7.589-24.642-13.193-54.053-17.872-33.646-5.353-78.289-8.3-125.708-8.3s-92.062,2.948-125.708,8.3c-29.411,4.679-46.683,10.283-54.053,17.872-12.3-3.762-22.513-7.9-30.042-12.192C37.175,145.7,32,140.288,32,136S37.175,126.3,46.2,121.15ZM418.172,375.821c-3.305.8-6.7,1.565-10.172,2.307v-87.65q7.172-1.478,13.926-3.1,9.667-2.334,18.074-4.879V369.7C433.368,371.863,426.063,373.917,418.172,375.821ZM152,194.141v87.89c-11.146-1.368-21.847-2.961-32-4.771V189.5C130.191,191.259,140.887,192.809,152,194.141Zm16,1.739c10.386,1.016,21.074,1.851,32,2.5v87.978c-10.942-.657-21.633-1.507-32-2.543Zm48,3.3c10.5.434,21.191.695,32,.783v88c-10.819-.088-21.506-.353-32-.794Zm48,.783c10.809-.088,21.5-.349,32-.783v87.988c-10.494.441-21.181.706-32,.794Zm48-1.588c10.926-.645,21.614-1.48,32-2.5v87.931c-10.367,1.036-21.058,1.886-32,2.543Zm48-4.235c11.113-1.332,21.809-2.882,32-4.642V277.26c-10.153,1.81-20.854,3.4-32,4.771ZM256,184c-59.263,0-115.013-5.362-157.7-15.129,7.511-2.644,20.121-5.892,41.119-8.9,31.982-4.58,73.385-7.1,116.578-7.1s84.6,2.523,116.578,7.1c21,3.007,33.608,6.255,41.119,8.9C371.013,178.638,315.263,184,256,184Zm-165.926-.625Q96.817,185,104,186.478v87.65c-3.468-.742-6.867-1.509-10.172-2.307-7.891-1.9-15.2-3.958-21.828-6.12V178.5Q80.417,181.039,90.074,183.375Zm0,104Q96.817,289,104,290.478v87.65c-3.468-.742-6.867-1.509-10.172-2.307-7.891-1.9-15.2-3.958-21.828-6.12V282.5Q80.417,285.039,90.074,287.375ZM120,293.5c10.191,1.76,20.887,3.31,32,4.642v87.89c-11.146-1.368-21.847-2.961-32-4.771Zm48,6.38c10.386,1.017,21.074,1.852,32,2.5v87.978c-10.942-.657-21.633-1.507-32-2.543Zm48,3.3c10.5.434,21.191.695,32,.783v88c-10.819-.088-21.506-.353-32-.794Zm48,.783c10.809-.088,21.5-.349,32-.783v87.988c-10.494.441-21.181.706-32,.794Zm48-1.588c10.926-.645,21.614-1.48,32-2.5v87.932c-10.367,1.036-21.058,1.886-32,2.543Zm48-4.235c11.113-1.332,21.809-2.882,32-4.642V381.26c-10.153,1.81-20.854,3.4-32,4.771Zm58.172-26.32c-3.305.8-6.7,1.565-10.172,2.307v-87.65q7.172-1.478,13.926-3.1,9.667-2.334,18.074-4.879V265.7C433.368,267.863,426.063,269.917,418.172,271.821ZM32,160.825q9.306,6.531,24,12.213V259.7a103.2,103.2,0,0,1-9.8-4.85C37.175,249.7,32,244.288,32,240Zm0,104q9.306,6.531,24,12.213V363.7a103.2,103.2,0,0,1-9.8-4.85C37.175,353.7,32,348.288,32,344ZM465.8,390.85c-10.876,6.206-27.347,12.075-47.631,16.971C374.949,418.254,317.355,424,256,424s-118.949-5.746-162.172-16.179c-20.284-4.9-36.755-10.765-47.631-16.971C37.175,385.7,32,380.288,32,376v-7.175q18.472,12.965,58.074,22.55C134.49,402.1,193.417,408,256,408s121.51-5.9,165.926-16.625q39.558-9.549,58.074-22.55V376C480,380.288,474.825,385.7,465.8,390.85Zm0-32a103.2,103.2,0,0,1-9.8,4.85V277.038q14.679-5.679,24-12.213V344C480,348.288,474.825,353.7,465.8,358.85Zm0-104a103.2,103.2,0,0,1-9.8,4.85V173.038q14.679-5.679,24-12.213V240C480,244.288,474.825,249.7,465.8,254.85Z"/><circle cx="256" cy="116.87" r="8"/><circle cx="136" cy="124.87" r="8"/><circle cx="376" cy="124.87" r="8"/></svg>
