<?xml version="1.0" encoding="iso-8859-1"?>
<!-- Generator: Adobe Illustrator 19.0.0, SVG Export Plug-In . SVG Version: 6.00 Build 0)  -->
<svg version="1.1" id="Capa_1" xmlns="http://www.w3.org/2000/svg" xmlns:xlink="http://www.w3.org/1999/xlink" x="0px" y="0px"
	 viewBox="0 0 512.001 512.001" style="enable-background:new 0 0 512.001 512.001;" xml:space="preserve">
<path style="fill:#736056;" d="M250.826,511.627c-9.235,0-16.722-7.487-16.722-16.722v-91.874c0-9.235,7.487-16.722,16.722-16.722
	s16.722,7.487,16.722,16.722v91.874C267.547,504.141,260.061,511.627,250.826,511.627z"/>
<g>
	<path style="fill:#36D9D9;" d="M250.826,110.306c-9.235,0-16.722-7.487-16.722-16.722V26.698c0-9.235,7.487-16.722,16.722-16.722
		s16.722,7.487,16.722,16.722v66.887C267.547,102.819,260.061,110.306,250.826,110.306z"/>
	<path style="fill:#36D9D9;" d="M52.345,162.943c-2.837,0-5.712-0.722-8.345-2.244L8.976,140.478
		c-7.999-4.617-10.739-14.843-6.12-22.842c4.617-7.997,14.843-10.74,22.842-6.12l35.023,20.221
		c7.999,4.617,10.739,14.843,6.12,22.842C63.744,159.942,58.124,162.943,52.345,162.943z"/>
	<path style="fill:#36D9D9;" d="M495.26,418.659c-2.837,0-5.712-0.722-8.345-2.244l-70.673-40.803
		c-7.999-4.617-10.739-14.843-6.12-22.842c4.617-7.997,14.843-10.741,22.842-6.12l70.673,40.803
		c7.999,4.617,10.739,14.843,6.12,22.842C506.659,415.659,501.038,418.659,495.26,418.659z"/>
	<path style="fill:#36D9D9;" d="M133.758,480.266c-2.837,0-5.712-0.722-8.345-2.244c-7.999-4.619-10.739-14.844-6.12-22.842
		l23.659-40.977c4.619-8,14.842-10.74,22.842-6.12c7.999,4.619,10.739,14.844,6.12,22.842l-23.659,40.977
		C145.158,477.268,139.537,480.266,133.758,480.266z"/>
	<path style="fill:#36D9D9;" d="M351.14,103.75c-2.837,0-5.712-0.722-8.345-2.244c-7.999-4.619-10.739-14.844-6.12-22.842
		l32.07-55.545c4.617-8,14.843-10.74,22.842-6.12c7.999,4.619,10.739,14.844,6.12,22.842l-32.07,55.545
		C362.54,100.751,356.919,103.75,351.14,103.75z"/>
	<path style="fill:#36D9D9;" d="M484.93,277.523h-66.887c-9.235,0-16.722-7.487-16.722-16.722c0-9.235,7.487-16.722,16.722-16.722
		h66.887c9.235,0,16.722,7.487,16.722,16.722C501.652,270.036,494.165,277.523,484.93,277.523z"/>
	<path style="fill:#36D9D9;" d="M83.609,277.523H16.722C7.487,277.523,0,270.036,0,260.802c0-9.235,7.487-16.722,16.722-16.722
		h66.887c9.235,0,16.722,7.487,16.722,16.722C100.33,270.036,92.843,277.523,83.609,277.523z"/>
	<path style="fill:#36D9D9;" d="M386.127,511.738c-5.777,0-11.394-2.997-14.492-8.356l-41.403-71.628
		c-4.622-7.996-1.886-18.224,6.108-22.845c7.999-4.622,18.224-1.886,22.845,6.108l41.403,71.628
		c4.622,7.996,1.886,18.224-6.108,22.845C391.844,511.013,388.966,511.738,386.127,511.738z"/>
	<path style="fill:#36D9D9;" d="M183.954,161.646c-5.777,0-11.394-2.997-14.492-8.356l-50.165-86.787
		c-4.622-7.996-1.886-18.224,6.108-22.845c7.994-4.622,18.224-1.886,22.845,6.108l50.165,86.787
		c4.622,7.996,1.886,18.224-6.108,22.845C189.673,160.921,186.794,161.646,183.954,161.646z"/>
	<path style="fill:#36D9D9;" d="M391.022,196.594c-5.777,0-11.394-2.997-14.492-8.356c-4.622-7.996-1.886-18.224,6.108-22.845
		l88.868-51.368c7.995-4.622,18.226-1.886,22.845,6.108c4.622,7.996,1.886,18.224-6.108,22.845l-88.868,51.368
		C396.741,195.869,393.861,196.594,391.022,196.594z"/>
	<path style="fill:#36D9D9;" d="M48.174,394.579c-5.776,0-11.394-2.997-14.492-8.356c-4.622-7.996-1.886-18.224,6.108-22.845
		l77.585-44.847c7.995-4.621,18.223-1.888,22.845,6.108c4.622,7.996,1.886,18.224-6.108,22.845L56.527,392.33
		C53.892,393.853,51.015,394.579,48.174,394.579z"/>
</g>
<g>
	<path style="fill:#FFC033;" d="M494.644,81.003c-4.28,0-8.559-1.633-11.823-4.898l-47.297-47.297c-6.53-6.529-6.53-17.117,0-23.648
		c6.529-6.529,17.117-6.529,23.648,0l47.297,47.297c6.53,6.529,6.53,17.117,0,23.648C503.203,79.37,498.924,81.003,494.644,81.003z"
		/>
	<path style="fill:#FFC033;" d="M447.347,81.003c-4.28,0-8.559-1.633-11.823-4.898c-6.53-6.529-6.53-17.117,0-23.648L482.821,5.16
		c6.529-6.529,17.117-6.529,23.648,0s6.53,17.117,0,23.648l-47.297,47.297C455.906,79.37,451.627,81.003,447.347,81.003z"/>
	<path style="fill:#FFC033;" d="M65.453,510.194c-4.28,0-8.559-1.633-11.823-4.898L6.333,457.999c-6.53-6.529-6.53-17.117,0-23.648
		c6.529-6.529,17.117-6.529,23.648,0l47.297,47.297c6.53,6.529,6.53,17.117,0,23.648C74.013,508.561,69.733,510.194,65.453,510.194z
		"/>
	<path style="fill:#FFC033;" d="M18.156,510.194c-4.28,0-8.559-1.633-11.823-4.898c-6.53-6.529-6.53-17.117,0-23.648l47.297-47.297
		c6.529-6.529,17.117-6.529,23.648,0c6.53,6.529,6.53,17.117,0,23.648l-47.297,47.297C26.716,508.561,22.436,510.194,18.156,510.194
		z"/>
</g>
<g>
	<circle style="fill:#FF6698;" cx="72.461" cy="82.437" r="16.722"/>
	<circle style="fill:#FF6698;" cx="27.87" cy="37.845" r="16.722"/>
	<circle style="fill:#FF6698;" cx="473.782" cy="483.76" r="16.722"/>
	<circle style="fill:#FF6698;" cx="429.191" cy="439.169" r="16.722"/>
</g>
<path style="fill:#FFC033;" d="M184.869,380.245c-3.467,0-6.917-1.077-9.83-3.193c-5.149-3.741-7.729-10.082-6.653-16.355
	l11.111-64.782l-47.067-45.88c-4.558-4.442-6.199-11.088-4.232-17.142c1.968-6.053,7.199-10.466,13.498-11.38l65.046-9.452
	l29.089-58.942c2.817-5.708,8.63-9.321,14.995-9.321c6.365,0,12.178,3.613,14.995,9.321l29.09,58.942l65.045,9.452
	c6.299,0.914,11.532,5.326,13.498,11.38c1.968,6.054,0.327,12.7-4.232,17.142l-47.067,45.879l11.112,64.782
	c1.076,6.274-1.504,12.614-6.653,16.355c-5.148,3.741-11.973,4.236-17.61,1.274l-58.178-30.588l-58.178,30.587
	C190.201,379.611,187.53,380.245,184.869,380.245z M250.826,312.124c2.672,0,5.345,0.64,7.781,1.921l35.971,18.911l-6.87-40.052
	c-0.931-5.425,0.867-10.959,4.808-14.801l29.1-28.366l-40.215-5.844c-5.447-0.792-10.153-4.212-12.59-9.147l-17.985-36.443
	l-17.985,36.441c-2.436,4.935-7.144,8.355-12.59,9.147l-40.216,5.844l29.1,28.366c3.941,3.842,5.739,9.376,4.808,14.8l-6.869,40.053
	l35.97-18.911C245.48,312.764,248.154,312.124,250.826,312.124z"/>
<g>
	<circle style="fill:#FF6698;" cx="108.691" cy="182.212" r="16.722"/>
	<circle style="fill:#FF6698;" cx="317.713" cy="143.752" r="16.722"/>
	<circle style="fill:#FF6698;" cx="376.239" cy="327.691" r="16.722"/>
</g>
<g>
</g>
<g>
</g>
<g>
</g>
<g>
</g>
<g>
</g>
<g>
</g>
<g>
</g>
<g>
</g>
<g>
</g>
<g>
</g>
<g>
</g>
<g>
</g>
<g>
</g>
<g>
</g>
<g>
</g>
</svg>
