<?xml version="1.0" encoding="iso-8859-1"?>
<!-- Generator: Adobe Illustrator 19.0.0, SVG Export Plug-In . SVG Version: 6.00 Build 0)  -->
<svg version="1.1" id="Capa_1" xmlns="http://www.w3.org/2000/svg" xmlns:xlink="http://www.w3.org/1999/xlink" x="0px" y="0px"
	 viewBox="0 0 511.605 511.605" style="enable-background:new 0 0 511.605 511.605;" xml:space="preserve">
<path style="fill:#ffb700;" d="M265.125,5.066c-3.328-5.141-10.197-6.613-15.339-3.285c-1.323,0.853-2.432,1.963-3.285,3.285
	C240.336,16.095,95.802,275.978,95.802,351.605c0,88.363,71.637,160,160,160s160-71.637,160-160
	C415.802,275.978,271.269,16.095,265.125,5.066z"/>
<path style="fill:#ffe100;" d="M255.802,447.605c-53.013,0-96-42.987-96-96c0-5.888,4.779-10.667,10.667-10.667
	s10.667,4.779,10.667,10.667c0,41.237,33.429,74.667,74.667,74.667c5.888,0,10.667,4.779,10.667,10.667
	C266.469,442.826,261.69,447.605,255.802,447.605z"/>
<path d="M255.802,511.605L255.802,511.605c-88.128-0.107-159.915-71.872-160-159.979c0-75.648,144.533-335.531,150.677-346.56
	c3.776-6.741,14.848-6.741,18.624,0c6.165,11.029,150.699,270.912,150.699,346.539C415.696,439.733,343.93,511.498,255.802,511.605z
	 M255.802,32.309c-52.757,96.235-138.667,266.411-138.667,319.296c0.085,76.352,62.293,138.56,138.667,138.667
	c76.373-0.107,138.56-62.315,138.667-138.688C394.469,298.719,308.56,128.543,255.802,32.309z"/>
<path d="M255.802,447.605c-52.928,0-96-43.072-96-96c0-5.888,4.779-10.667,10.667-10.667s10.667,4.779,10.667,10.667
	c0,41.173,33.493,74.667,74.667,74.667c5.888,0,10.667,4.779,10.667,10.667C266.469,442.826,261.69,447.605,255.802,447.605z"/>
<g>
</g>
<g>
</g>
<g>
</g>
<g>
</g>
<g>
</g>
<g>
</g>
<g>
</g>
<g>
</g>
<g>
</g>
<g>
</g>
<g>
</g>
<g>
</g>
<g>
</g>
<g>
</g>
<g>
</g>
</svg>
