<?xml version="1.0" encoding="iso-8859-1"?>
<!-- Generator: Adobe Illustrator 21.0.0, SVG Export Plug-In . SVG Version: 6.00 Build 0)  -->
<svg xmlns="http://www.w3.org/2000/svg" xmlns:xlink="http://www.w3.org/1999/xlink" version="1.1" id="Capa_1" x="0px" y="0px" viewBox="0 0 512 512" style="enable-background:new 0 0 512 512;" xml:space="preserve" width="512" height="512">
<g>
	<path style="fill:#D3D3D8;" d="M271.071,363.04v-0.01c0-3.38,1.14-6.69,3.3-9.38c2.84-3.55,7.15-5.62,11.7-5.62h82.58   c4.55,0,8.86,2.07,11.71,5.62c2.15,2.69,3.29,6,3.29,9.38v0.01c0,1.08-0.12,2.18-0.36,3.26l-2.62,11.73l-7.82,35.01l-6.28,28.14   c-3.05,0.35-6.26,0.17-9.39-0.61c-6.36-1.59-13.31,34.34-20.58,34.03c-5.96-0.25-12.13-0.07-18.36,0.53   c-6.9,0.67-13.88-35.02-20.72-33.32c-3.03,0.75-6.13,0.93-9.09,0.63l-6.31-28.26l-8.07-36.15l-2.62-11.73   C271.191,365.22,271.071,364.13,271.071,363.04z"/>
	<path style="fill:#E2E2E7;" d="M297.521,462.6c6.84-1.7,13.82-2.88,20.72-3.55c3.061-0.295,6.106-21.276,9.12-21.367v-92.612   l-53.31,32.958l8.07,36.15l6.31,28.26C291.391,442.74,294.491,463.35,297.521,462.6z"/>
	<path style="fill:#C7011C;" d="M271.431,366.3l2.62,11.73h106.62l2.62-11.73c0.24-1.08,0.36-2.18,0.36-3.26V56.29   c0-31.04-25.25-56.29-56.29-56.29s-56.29,25.25-56.29,56.29v306.75C271.071,364.13,271.191,365.22,271.431,366.3z"/>
	<path style="fill:#FF415B;" d="M271.431,366.3l2.62,11.73h53.31v-30V0c-31.04,0-56.29,25.25-56.29,56.29v306.74v0.01   C271.071,364.13,271.191,365.22,271.431,366.3z"/>
	<path style="fill:#C7011C;" d="M288.431,442.44c2.96,0.3,6.06,0.12,9.09-0.63c6.84-1.7,13.82-2.88,20.72-3.55   c6.23-0.6,12.4-0.78,18.36-0.53c7.27,0.31,14.22,1.25,20.58,2.84c3.13,0.78,6.34,0.96,9.39,0.61l-11.2,50.15   c-0.21,0.94-0.51,1.85-0.89,2.73c-4.83,11.06-15.22,17.94-27.12,17.94s-22.29-6.87-27.12-17.94c-0.38-0.88-0.68-1.79-0.89-2.73   L288.431,442.44z"/>
	<path style="fill:#FF415B;" d="M299.351,491.33c0.21,0.94,0.51,1.85,0.89,2.73c4.83,11.07,15.22,17.94,27.12,17.94v-37.446v-36.87   c-3.014,0.091-6.06,0.282-9.12,0.576c-6.9,0.67-13.88,1.85-20.72,3.55c-3.03,0.75-6.13,0.93-9.09,0.63L299.351,491.33z"/>	
</g>
</svg>
